<svg width="311" height="58" viewBox="0 0 311 58" fill="none" xmlns="http://www.w3.org/2000/svg">
<path d="M82.807 42.7926C80.0292 42.7926 77.6572 42.2924 75.6908 41.292C73.8339 40.3844 72.2275 39.0471 71.0091 37.3946C69.8712 35.8349 69.0734 34.0598 68.666 32.1812H74.3777C74.84 33.756 75.8193 35.1352 77.1622 36.1028C78.5831 37.1793 80.464 37.7176 82.8048 37.7176C84.4278 37.7176 85.7773 37.5177 86.8534 37.1178C87.9294 36.718 88.7179 36.1716 89.2188 35.4789C89.7186 34.786 89.981 33.954 89.9678 33.1039C89.9787 32.6606 89.89 32.2204 89.7081 31.8148C89.5262 31.4091 89.2555 31.0481 88.9156 30.7576C88.1401 30.0967 87.2454 29.5855 86.2782 29.2505C85.217 28.8667 83.7813 28.4273 81.971 27.9323C79.8724 27.4032 77.8085 26.748 75.7911 25.9704C74.2466 25.351 72.8686 24.3878 71.7649 23.1561C70.6413 21.9096 70.0794 20.2568 70.0794 18.1975C70.0795 16.5042 70.5926 14.8495 71.5531 13.4455C72.5355 11.9691 73.9474 10.7974 75.7889 9.93031C77.6304 9.06323 79.7684 8.63263 82.2029 8.63849C84.7934 8.63849 87.0169 9.08447 88.8732 9.97644C90.7296 10.8684 92.1809 12.0218 93.2272 13.4367C94.2595 14.821 94.971 16.4116 95.3117 18.0964H89.5955C89.2522 16.8661 88.4637 15.8277 87.2302 14.9811C85.9966 14.1346 84.3193 13.7164 82.1984 13.7267C81.003 13.6972 79.8135 13.9011 78.6983 14.3264C77.8365 14.6472 77.0823 15.1979 76.5202 15.917C76.0446 16.5532 75.7905 17.3239 75.7956 18.114C75.7864 18.5493 75.8738 18.9812 76.0517 19.3797C76.2296 19.7781 76.4937 20.1335 76.8256 20.4208C77.5931 21.0824 78.4834 21.5912 79.4473 21.9192C80.5085 22.3044 81.9443 22.7277 83.7545 23.189C85.8478 23.7536 87.9104 24.4231 89.9344 25.1949C91.5017 25.8087 92.8979 26.7817 94.0075 28.0333C95.1311 29.2944 95.6929 30.9553 95.6929 33.0161C95.7047 34.7613 95.1732 36.4681 94.1702 37.9065C93.1551 39.3829 91.6808 40.567 89.7471 41.459C87.8135 42.351 85.5001 42.7955 82.807 42.7926Z" fill="#EDF2F5"/>
<path d="M109.867 42.4235C106.965 42.4235 104.678 41.5543 103.008 39.8157C101.337 38.0772 100.502 35.6437 100.504 32.5152V18.571H105.607V31.9506C105.607 33.9191 106.114 35.4108 107.127 36.4258C108.141 37.4408 109.507 37.9483 111.225 37.9483C112.383 37.9633 113.524 37.6679 114.525 37.0937C115.519 36.5137 116.323 35.6652 116.843 34.6485C117.419 33.5273 117.709 32.2844 117.686 31.0279V18.571H122.84V41.8699H117.69V38.502H117.55C116.799 39.6735 115.758 40.6374 114.525 41.3031C113.101 42.0774 111.493 42.4641 109.867 42.4235Z" fill="#EDF2F5"/>
<path d="M128.688 50.6357V18.571H133.791V21.9389H133.931C134.331 21.3706 134.803 20.8539 135.333 20.401C137.129 18.8083 139.475 17.9544 141.89 18.0151C143.858 17.9959 145.791 18.5293 147.463 19.553C149.177 20.6149 150.568 22.1133 151.49 23.8898C152.511 25.8512 153.025 28.0306 152.986 30.2347C153.021 32.4229 152.507 34.5859 151.49 36.5312C150.568 38.3077 149.177 39.8061 147.463 40.868C145.791 41.8916 143.858 42.425 141.89 42.4059C139.476 42.4748 137.127 41.6305 135.324 40.0463C134.794 39.5934 134.323 39.0768 133.922 38.5085H133.782V50.6423L128.688 50.6357ZM140.813 37.9482C142.058 37.9656 143.282 37.6375 144.347 37.0013C145.414 36.3484 146.273 35.4137 146.828 34.3035C147.459 33.0419 147.772 31.6494 147.742 30.2435C147.774 28.8246 147.461 27.4188 146.828 26.1439C146.273 25.033 145.414 24.0976 144.347 23.4438C143.282 22.8083 142.058 22.481 140.813 22.4991C139.554 22.485 138.315 22.8118 137.231 23.4438C136.143 24.0865 135.265 25.0237 134.702 26.1439C134.069 27.421 133.757 28.8291 133.791 30.25C133.76 31.6558 134.073 33.0483 134.702 34.31C135.265 35.4297 136.143 36.3662 137.231 37.0079C138.315 37.6383 139.554 37.9635 140.813 37.9482Z" fill="#EDF2F5"/>
<path d="M157.57 50.6358V18.571H162.673V21.9389H162.814C163.216 21.3712 163.688 20.8546 164.218 20.4011C166.012 18.8092 168.357 17.9553 170.771 18.0152C172.739 17.9956 174.672 18.529 176.344 19.553C178.058 20.6144 179.45 22.1129 180.37 23.8898C181.369 25.7499 181.868 27.8649 181.868 30.2347C181.904 32.4232 181.39 34.5864 180.37 36.5312C179.451 38.3114 178.06 39.8131 176.344 40.8768C174.672 41.9007 172.739 42.4342 170.771 42.4147C168.358 42.4759 166.013 41.6255 164.216 40.0376C163.685 39.584 163.214 39.0674 162.812 38.4997H162.671V50.6336L157.57 50.6358ZM169.696 37.9483C170.938 37.9639 172.16 37.6359 173.223 37.0014C174.29 36.3484 175.149 35.4137 175.704 34.3035C176.334 33.0417 176.647 31.6493 176.616 30.2435C176.652 28.8255 176.342 27.4198 175.713 26.1439C175.157 25.0295 174.294 24.0916 173.223 23.4373C172.157 22.8018 170.932 22.4745 169.687 22.4926C168.428 22.4785 167.19 22.8053 166.107 23.4373C165.021 24.083 164.147 25.0225 163.587 26.1439C162.954 27.4208 162.64 28.829 162.673 30.2501C162.643 31.656 162.957 33.0485 163.587 34.3101C164.15 35.4297 165.028 36.3662 166.116 37.008C167.199 37.6384 168.438 37.9636 169.696 37.9483Z" fill="#EDF2F5"/>
<path d="M197.647 42.4235C195.397 42.4537 193.178 41.9047 191.209 40.8307C189.325 39.8039 187.763 38.288 186.692 36.4477C185.593 34.5613 185.027 32.4188 185.054 30.2435C185.03 28.0609 185.595 25.9112 186.692 24.0151C187.758 22.1645 189.321 20.6395 191.209 19.608C193.199 18.5621 195.419 18.015 197.674 18.015C199.929 18.015 202.15 18.5621 204.139 19.608C206.029 20.6388 207.593 22.1639 208.658 24.0151C209.756 25.9112 210.321 28.0609 210.297 30.2435C210.324 32.4188 209.758 34.5613 208.658 36.4477C207.587 38.2886 206.024 39.8046 204.139 40.8307C202.153 41.9098 199.915 42.4589 197.647 42.4235ZM197.647 37.9483C198.976 37.9672 200.286 37.6325 201.437 36.9794C202.56 36.334 203.476 35.3909 204.081 34.2574C204.739 33.0201 205.069 31.6397 205.042 30.2435C205.072 28.8322 204.742 27.4361 204.081 26.1835C203.476 25.05 202.56 24.1068 201.437 23.4614C200.286 22.8084 198.976 22.4737 197.647 22.4926C196.333 22.4772 195.039 22.812 193.902 23.4614C192.779 24.1067 191.862 25.0498 191.256 26.1835C190.596 27.4362 190.266 28.8324 190.297 30.2435C190.27 31.6395 190.6 33.0199 191.256 34.2574C191.862 35.391 192.779 36.3342 193.902 36.9794C195.039 37.6289 196.333 37.9636 197.647 37.9483Z" fill="#EDF2F5"/>
<path d="M214.781 41.8699V18.582H219.884V22.1806H220.025C220.582 21.037 221.448 20.067 222.528 19.3773C223.668 18.623 225.05 18.2466 226.673 18.2481H229.482V23.1846H226.345C225.172 23.1599 224.012 23.4298 222.974 23.969C222.023 24.4766 221.235 25.238 220.703 26.1659C220.142 27.16 219.86 28.2828 219.884 29.4196V41.8765L214.781 41.8699Z" fill="#EDF2F5"/>
<path d="M234.164 41.8698V23.0462H231.121V18.571H234.164V13.496H239.314V18.571H246.43V23.0462H239.314V37.3946H246.671V41.8698H234.164Z" fill="#EDF2F5"/>
<path d="M250.924 41.8698V9.57434H256.027V37.3946H261.411V41.8698H250.924Z" fill="#EDF2F5"/>
<path d="M271.477 50.6358L274.193 41.8699H268.902L262.582 18.582H267.973L272.877 37.4057H275.553L281.218 18.582H286.555L276.864 50.6578L271.477 50.6358Z" fill="#EDF2F5"/>
<path d="M287.721 41.8699V37.3947L300.745 23.3231V23.0463H288.198V18.571H307.489V23.0463L294.503 37.1288V37.4057H307.937V41.8809L287.721 41.8699Z" fill="#EDF2F5"/>
<path d="M19.8209 30.8981C13.3066 25.0278 11.6324 16.2004 15.7501 9.43373C20.1442 2.21229 29.7439 -0.298843 37.1522 3.83366C41.2431 6.11411 44.2751 10.3455 45.2739 15.159L41.1428 15.9939C40.3848 12.3447 38.1153 9.15252 35.0722 7.45646C29.6392 4.42464 22.5876 6.27229 19.3661 11.578C15.779 17.4724 18.5613 24.1381 22.6656 27.8355L19.8209 30.8981Z" fill="#22D369"/>
<path d="M43.3414 44.4997L42.4964 40.4243C46.1995 39.6773 49.4365 37.4408 51.1599 34.4419C54.2364 29.0879 52.3593 22.1389 46.9775 18.9643C41.6894 15.8468 35.4114 16.9167 30.9683 21.7127L27.8672 18.9094C33.6324 12.6963 42.1888 11.2859 49.1579 15.4052C56.4859 19.7354 59.0341 29.1956 54.8406 36.4961C52.5153 40.521 48.2215 43.5154 43.3414 44.4997Z" fill="#22D369"/>
<path d="M29.5788 22.3608C32.0364 22.3608 34.0286 20.3975 34.0286 17.9756C34.0286 15.5538 32.0364 13.5905 29.5788 13.5905C27.1212 13.5905 25.1289 15.5538 25.1289 17.9756C25.1289 20.3975 27.1212 22.3608 29.5788 22.3608Z" fill="#22D369"/>
<path d="M29.4128 44.4206C31.8703 44.4206 33.8626 42.4573 33.8626 40.0354C33.8626 37.6136 31.8703 35.6503 29.4128 35.6503C26.9552 35.6503 24.9629 37.6136 24.9629 40.0354C24.9629 42.4573 26.9552 44.4206 29.4128 44.4206Z" fill="#22D369"/>
<path d="M18.1432 33.7476C20.6008 33.7476 22.5931 31.7843 22.5931 29.3624C22.5931 26.9406 20.6008 24.9773 18.1432 24.9773C15.6856 24.9773 13.6934 26.9406 13.6934 29.3624C13.6934 31.7843 15.6856 33.7476 18.1432 33.7476Z" fill="#22D369"/>
<path d="M40.8268 33.1786C43.2844 33.1786 45.2767 31.2153 45.2767 28.7935C45.2767 26.3716 43.2844 24.4083 40.8268 24.4083C38.3692 24.4083 36.377 26.3716 36.377 28.7935C36.377 31.2153 38.3692 33.1786 40.8268 33.1786Z" fill="#22D369"/>
<path d="M18.2811 44.6556C15.3046 44.6476 12.3868 43.8386 9.84283 42.3158C2.51482 37.9834 -0.0356023 28.5232 4.15788 21.2249C6.47645 17.1978 10.7725 14.2056 15.6504 13.2191L16.4976 17.2901C12.7968 18.0393 9.55747 20.2758 7.83415 23.2725C4.75759 28.6265 6.63474 35.5755 12.0165 38.7501C17.3001 41.872 23.5826 40.7955 28.0257 36.0061L31.1469 38.8094C27.5732 42.6497 22.945 44.6534 18.2811 44.6556Z" fill="#22D369"/>
<path d="M29.6506 56.2424C27.7737 56.234 25.9156 55.8739 24.1752 55.1813C19.3352 53.2919 15.0905 48.8826 13.0996 43.678L17.0456 42.2126C18.6307 46.3561 21.9503 49.8449 25.7403 51.319C27.0844 51.8663 28.532 52.1231 29.9854 52.0719C31.4387 52.0207 32.8641 51.6629 34.1651 51.0224C37.4958 49.4165 40.015 46.099 40.7418 42.3664C41.1074 40.4814 40.8176 38.124 39.9259 35.7293C39.2888 33.9255 38.1734 32.3227 36.6955 31.0871C32.1453 27.4336 22.9045 28.1608 19.0409 32.4734C19.0082 32.51 18.9748 32.5496 18.9406 32.5921L15.679 29.9557C15.7437 29.8788 15.8083 29.8019 15.8752 29.736C21.3238 23.6526 32.9546 22.7321 39.3596 27.8752C41.4244 29.581 42.9866 31.8018 43.883 34.3057C45.0379 37.399 45.3923 40.5429 44.8818 43.1573C43.8964 48.2235 40.5835 52.5625 36.02 54.7639C34.0406 55.7331 31.8609 56.2391 29.6506 56.2424Z" fill="#22D369"/>
</svg>
